<svg width="21" height="21" fill="none" xmlns="http://www.w3.org/2000/svg"><path d="M19.875 14.667H5.292a1.042 1.042 0 010-2.084h10.875a3.124 3.124 0 003.03-2.364l1.72-6.76a1.042 1.042 0 00-.188-.897 1.042 1.042 0 00-.854-.395H5.042A3.125 3.125 0 002.104.083h-.98a1.042 1.042 0 100 2.084h.98a1.042 1.042 0 011.042.791l.062.5L5.01 10.5a3.128 3.128 0 00.282 6.25h.187a3.125 3.125 0 105.875 0h2.458a3.126 3.126 0 004.38 3.838 3.126 3.126 0 001.495-3.838h.188a1.042 1.042 0 100-2.083zM18.542 4.25l-1.365 5.458a1.041 1.041 0 01-1.042.792h-8.99L5.584 4.25h12.959zM8.417 18.833a1.042 1.042 0 110-2.084 1.042 1.042 0 010 2.084zm8.333 0a1.042 1.042 0 110-2.084 1.042 1.042 0 010 2.084z" fill="#292A33"/></svg>