<svg width="20" height="20" fill="none" xmlns="http://www.w3.org/2000/svg"><g clip-path="url(#clip0_111_6922)" fill="#fff"><path d="M6.444 12.93H17.07a.586.586 0 00.564-.425l2.343-8.203a.586.586 0 00-.563-.747H5.092L4.674 1.67a.586.586 0 00-.572-.46H.586a.586.586 0 100 1.173h3.046l2.115 9.52a1.76 1.76 0 00-1.06 1.613c0 .969.79 1.757 1.758 1.757H17.07a.586.586 0 100-1.171H6.445a.587.587 0 01-.001-1.172zm12.193-8.203l-2.009 7.03H6.915l-1.562-7.03h13.284z"/><path d="M5.86 17.031c0 .97.788 1.758 1.757 1.758a1.76 1.76 0 001.758-1.758 1.76 1.76 0 00-1.758-1.758 1.76 1.76 0 00-1.758 1.758zm1.757-.586a.587.587 0 11-.001 1.174.587.587 0 01.001-1.174zm6.523.586c0 .97.79 1.758 1.758 1.758a1.76 1.76 0 001.758-1.758 1.76 1.76 0 00-1.758-1.758 1.76 1.76 0 00-1.757 1.758zm1.758-.586a.587.587 0 110 1.174.587.587 0 010-1.174z"/></g><defs><clipPath id="clip0_111_6922"><path fill="#fff" d="M0 0h20v20H0z"/></clipPath></defs></svg>