<svg width="21" height="12" fill="none" xmlns="http://www.w3.org/2000/svg"><path d="M20.156 5.565c-.04-.05-1.009-1.266-2.67-2.487C15.266 1.448 12.85.585 10.5.585c-2.35 0-4.766.862-6.986 2.493C1.853 4.298.884 5.514.844 5.565L.5 6l.344.434c.04.052 1.009 1.267 2.67 2.488 2.22 1.63 4.636 2.493 6.986 2.493 2.35 0 4.766-.862 6.986-2.493 1.661-1.22 2.63-2.436 2.67-2.488L20.5 6l-.344-.435zM10.5 9.793a3.798 3.798 0 01-3.673-4.742l-.866-.146a4.66 4.66 0 001.367 4.518 12.293 12.293 0 01-2.952-1.607A14.717 14.717 0 012.326 6a14.721 14.721 0 012.05-1.816c.76-.556 1.768-1.17 2.952-1.607l.581.654a3.78 3.78 0 012.59-1.025A3.798 3.798 0 0114.294 6 3.798 3.798 0 0110.5 9.793zm6.124-1.977c-.76.555-1.768 1.17-2.952 1.607A4.657 4.657 0 0015.168 6c0-1.351-.577-2.57-1.498-3.423a12.297 12.297 0 012.953 1.607A14.718 14.718 0 0118.674 6a14.712 14.712 0 01-2.05 1.816z" fill="#000"/><path d="M8.086 5.262a2.524 2.524 0 10.666-1.082l1.244 1.404-1.91-.322z" fill="#000"/></svg>