<svg width="10" height="13" fill="none" xmlns="http://www.w3.org/2000/svg"><path d="M3.125 5.25h.625a.625.625 0 000-1.25h-.625a.625.625 0 000 1.25zm0 1.25a.625.625 0 000 1.25h3.75a.625.625 0 000-1.25h-3.75zM10 4.588a.819.819 0 00-.037-.17v-.056a.669.669 0 00-.12-.175L6.094.438A.669.669 0 005.92.32a.2.2 0 00-.056 0 .55.55 0 00-.209-.07h-3.78A1.875 1.875 0 000 2.125v8.75a1.875 1.875 0 001.875 1.875h6.25A1.875 1.875 0 0010 10.875V4.588zM6.25 2.38L7.869 4h-.994a.625.625 0 01-.625-.625v-.994zm2.5 8.494a.625.625 0 01-.625.625h-6.25a.625.625 0 01-.625-.625v-8.75a.625.625 0 01.625-.625H5v1.875A1.875 1.875 0 006.875 5.25H8.75v5.625zM6.875 9h-3.75a.625.625 0 000 1.25h3.75a.625.625 0 100-1.25z" fill="#7F7F7F"/></svg>