<svg width="19" height="18" fill="none" xmlns="http://www.w3.org/2000/svg"><path d="M18.353 5.217C17.84 2.643 16.012.984 13.655.984c-1.318 0-2.744.543-4.14 1.566C8.106 1.496 6.679.953 5.346.953c-2.357 0-4.202 1.675-4.698 4.28-.744 3.86 1.644 8.992 8.636 11.782a.622.622 0 00.233.047.622.622 0 00.232-.047c6.977-2.852 9.349-7.969 8.605-11.798zM9.516 15.744c-6.14-2.543-8.264-6.977-7.628-10.279.372-1.969 1.736-3.256 3.457-3.256 1.163 0 2.465.558 3.767 1.628a.63.63 0 00.791 0c1.303-1.039 2.59-1.581 3.752-1.581 1.721 0 3.07 1.256 3.458 3.209.635 3.271-1.473 7.69-7.597 10.28z" fill="#000"/></svg>