<svg width="21" height="12" viewBox="0 0 21 12" fill="none" xmlns="http://www.w3.org/2000/svg">
<path d="M20.1564 5.56549C20.116 5.51435 19.147 4.29871 17.4856 3.07816C15.2656 1.4471 12.85 0.584961 10.4999 0.584961C8.15 0.584961 5.73438 1.4471 3.51426 3.07816C1.85295 4.29866 0.883892 5.51435 0.84348 5.56549L0.5 5.99991L0.843524 6.43437C0.883936 6.48551 1.85299 7.70119 3.51431 8.92174C5.73443 10.5528 8.15004 11.4149 10.5 11.4149C12.85 11.4149 15.2656 10.5528 17.4856 8.92174C19.147 7.70119 20.116 6.48551 20.1564 6.43437L20.5 5.99991L20.1564 5.56549ZM10.4999 9.79338C8.40823 9.79338 6.70646 8.09165 6.70646 5.99991C6.70646 5.67219 6.74823 5.35406 6.82673 5.05051L5.96066 4.90475C5.8758 5.25612 5.83079 5.62284 5.83079 5.99991C5.83079 7.35106 6.40795 8.56981 7.32836 9.42319C6.14354 8.98553 5.13604 8.37139 4.37566 7.81595C3.43361 7.1279 2.72761 6.432 2.32511 5.99991C2.72778 5.56768 3.4337 4.87187 4.37566 4.18386C5.13604 3.62843 6.14358 3.01428 7.32836 2.57658L7.90936 3.23149C8.58792 2.5961 9.49922 2.20643 10.4999 2.20643C12.5916 2.20643 14.2934 3.90816 14.2934 5.99991C14.2934 8.09165 12.5916 9.79338 10.4999 9.79338ZM16.6242 7.81595C15.8637 8.37139 14.8563 8.98553 13.6715 9.42319C14.5919 8.56986 15.169 7.3511 15.169 5.99986C15.169 4.64862 14.5919 3.42991 13.6715 2.57653C14.8563 3.01423 15.8637 3.62838 16.6242 4.18382C17.5663 4.87187 18.2723 5.56776 18.6748 5.99982C18.2721 6.43214 17.5662 7.12798 16.6242 7.81595Z" fill="black"/>
<path d="M8.08584 5.26239C8.01465 5.49571 7.97607 5.74322 7.97607 5.99983C7.97607 7.39363 9.10599 8.52359 10.4998 8.52359C11.8936 8.52359 13.0235 7.39367 13.0235 5.99983C13.0235 4.60599 11.8936 3.47607 10.4998 3.47607C9.82093 3.47607 9.20512 3.74464 8.75148 4.18072L9.99632 5.58389L8.08584 5.26239Z" fill="black"/>
</svg>
