<svg width="19" height="18" viewBox="0 0 19 18" fill="none" xmlns="http://www.w3.org/2000/svg">
<path d="M18.3528 5.21694C17.8411 2.64329 16.0117 0.984377 13.6551 0.984377C12.3373 0.984377 10.9109 1.52701 9.51556 2.55027C8.10471 1.496 6.67835 0.953369 5.34502 0.953369C2.98843 0.953369 1.14347 2.62779 0.647345 5.23244C-0.0968412 9.09291 2.29076 14.2247 9.283 17.0154C9.36052 17.0464 9.43804 17.0619 9.51556 17.0619C9.59308 17.0619 9.6706 17.0464 9.74812 17.0154C16.7249 14.1627 19.097 9.04639 18.3528 5.21694ZM9.51556 15.7441C3.37603 13.2014 1.252 8.76732 1.88765 5.465C2.25975 3.49601 3.62409 2.20918 5.34502 2.20918C6.50781 2.20918 7.81014 2.76732 9.11246 3.83709C9.34502 4.02314 9.6706 4.02314 9.90316 3.83709C11.2055 2.79833 12.4923 2.25569 13.6551 2.25569C15.376 2.25569 16.7249 3.51151 17.1125 5.465C17.7481 8.73632 15.6396 13.1549 9.51556 15.7441Z" fill="black"/>
</svg>
